<svg width="255" height="236" viewBox="0 0 255 236" fill="none" xmlns="http://www.w3.org/2000/svg">
<path fill-rule="evenodd" clip-rule="evenodd" d="M209.306 84.5406L254.611 131.25H227.453L127.306 28L27.1586 131.25H0L127.306 0L189.306 63.921V28H209.306V84.5406Z" fill="#5D0F25"/>
<rect x="104" y="191" width="19" height="19" fill="#5D0F25"/>
<rect x="131" y="191" width="19" height="19" fill="#5D0F25"/>
<rect x="131" y="217" width="19" height="19" fill="#5D0F25"/>
<rect x="104" y="217" width="19" height="19" fill="#5D0F25"/>
<path d="M87 165.8V166.8H88H94.6202H95.6202V165.8V138.5H106.431C109.823 138.5 112.772 137.616 115.225 135.804L115.225 135.804L115.232 135.799C117.704 133.942 119.586 131.387 120.898 128.178C122.21 124.97 122.853 121.304 122.853 117.2C122.853 113.106 122.263 109.48 121.056 106.341C119.843 103.186 118.004 100.687 115.522 98.8924C113.059 97.0755 110.006 96.2 106.431 96.2H88H87V97.2V165.8ZM111.709 125.522L111.704 125.528L111.7 125.534C110.324 127.54 108.521 128.5 106.206 128.5H95.6202V106.2H106.206C108.718 106.2 110.557 107.131 111.858 108.976C113.203 110.883 113.932 113.588 113.932 117.2C113.932 120.725 113.161 123.471 111.709 125.522ZM137.985 158.709L137.988 158.713C141.668 164.864 147 168 153.892 168C156.875 168 159.593 167.254 162.017 165.75C163.815 164.634 165.379 163.05 166.722 161.029L167.654 165.985L167.807 166.8H168.637H173H174V165.8V130.1V129.1H173H152.838H151.838V130.1V137.8V138.8H152.838H165.229V139.4C165.229 145.864 164.256 150.546 162.44 153.583C160.695 156.433 157.916 157.9 153.892 157.9C149.982 157.9 146.986 156.067 144.835 152.213C142.652 148.302 141.501 142.275 141.501 134V129C141.501 120.731 142.726 114.714 145.047 110.811C147.351 106.934 150.408 105.1 154.268 105.1C157.541 105.1 160.138 106.308 162.149 108.738L162.149 108.738L162.157 108.747C164.136 111.079 165.229 114.955 165.229 120.6V121.6H166.229H173H174V120.6C174 114.98 173.161 110.261 171.43 106.491C169.762 102.684 167.44 99.783 164.437 97.8581C161.454 95.9463 158.054 95 154.268 95C147.473 95 142.103 98.1372 138.226 104.265L138.223 104.271C134.414 110.374 132.58 119.499 132.58 131.5C132.58 143.433 134.339 152.547 137.985 158.709Z" fill="#023020" stroke="#023020" stroke-width="2"/>
</svg>
